{
  "source": "C:\\Users\\Peter\\Desktop\\stuff\\MIUN\\quantitative_research\\video_compression\\videos\\BVI-HD\\BVI-HD_CDVL_videos\\ORIG\\Surfers_1920x1080_30fps.mp4",
  "output": "C:\\Users\\Peter\\Desktop\\stuff\\MIUN\\quantitative_research\\video_compression\\compressed_videos\\BVI-HD\\vp9\\2.5\\Surfers_1920x1080_30fps_vp9.webm",
  "codec": "vp9",
  "ok": "Input #0, mov,mp4,m4a,3gp,3g2,mj2, from 'C:\\Users\\Peter\\Desktop\\stuff\\MIUN\\quantitative_research\\video_compression\\videos\\BVI-HD\\BVI-HD_CDVL_videos\\ORIG\\Surfers_1920x1080_30fps.mp4':\n  Metadata:\n    major_brand     : isom\n    minor_version   : 512\n    compatible_brands: isomiso2avc1mp41\n    encoder         : Lavf54.28.101\n  Duration: 00:00:05.00, start: 0.000000, bitrate: 232762 kb/s\n  Stream #0:0[0x1](und): Video: h264 (High 4:4:4 Predictive) (avc1 / 0x31637661), yuv420p(progressive), 1920x1080, 232759 kb/s, 30 fps, 30 tbr, 30 tbn (default)\n    Metadata:\n      handler_name    : VideoHandler\n      vendor_id       : [0][0][0][0]\n[out#0/webm @ 000001c4f0020c40] Codec AVOption b:a (set bitrate (in bits/s)) has not been used for any stream. The most likely reason is either wrong type (e.g. a video option with no video streams) or that it is a private option of some decoder which was not actually used for any stream.\nStream mapping:\n  Stream #0:0 -> #0:0 (h264 (native) -> vp9 (libvpx-vp9))\nPress [q] to stop, [?] for help\n[libvpx-vp9 @ 000001c4f05f0b40] v1.15.2-100-g40561f514\nOutput #0, webm, to 'C:\\Users\\Peter\\Desktop\\stuff\\MIUN\\quantitative_research\\video_compression\\compressed_videos\\BVI-HD\\vp9\\2.5\\Surfers_1920x1080_30fps_vp9.webm':\n  Metadata:\n    major_brand     : isom\n    minor_version   : 512\n    compatible_brands: isomiso2avc1mp41\n    encoder         : Lavf62.3.100\n  Stream #0:0(und): Video: vp9, yuv420p(tv, progressive), 1920x1080, q=2-31, 2500 kb/s, 30 fps, 1k tbn (default)\n    Metadata:\n      encoder         : Lavc62.11.100 libvpx-vp9\n      handler_name    : VideoHandler\n      vendor_id       : [0][0][0][0]\n    Side data:\n      cpb: bitrate max/min/avg: 0/0/0 buffer size: 2500000 vbv_delay: N/A\nframe=    0 fps=0.0 q=0.0 size=       0KiB time=N/A bitrate=N/A speed=N/A elapsed=0:00:00.54    \nframe=    6 fps=5.1 q=56.0 size=       1KiB time=00:00:00.20 bitrate=  25.4kbits/s speed=0.169x elapsed=0:00:01.18    \nframe=   11 fps=6.4 q=38.0 size=       1KiB time=00:00:00.36 bitrate=  13.8kbits/s speed=0.215x elapsed=0:00:01.70    \nframe=   16 fps=7.2 q=53.0 size=       1KiB time=00:00:00.53 bitrate=   9.5kbits/s speed=0.239x elapsed=0:00:02.23    \nframe=   20 fps=7.3 q=54.0 size=       1KiB time=00:00:00.66 bitrate=   7.6kbits/s speed=0.242x elapsed=0:00:02.75    \nframe=   26 fps=7.9 q=55.0 size=       1KiB time=00:00:00.86 bitrate=   5.9kbits/s speed=0.265x elapsed=0:00:03.27    \nframe=   30 fps=7.9 q=54.0 size=       1KiB time=00:00:01.00 bitrate=   5.1kbits/s speed=0.262x elapsed=0:00:03.82    \nframe=   35 fps=8.1 q=53.0 size=       1KiB time=00:00:01.16 bitrate=   4.3kbits/s speed=0.269x elapsed=0:00:04.33    \nframe=   40 fps=8.2 q=55.0 size=       1KiB time=00:00:01.33 bitrate=   3.8kbits/s speed=0.275x elapsed=0:00:04.85    \nframe=   44 fps=8.2 q=49.0 size=       1KiB time=00:00:01.46 bitrate=   3.5kbits/s speed=0.272x elapsed=0:00:05.39    \nframe=   49 fps=8.3 q=51.0 size=       1KiB time=00:00:01.63 bitrate=   3.1kbits/s speed=0.276x elapsed=0:00:05.91    \nframe=   54 fps=8.4 q=52.0 size=       1KiB time=00:00:01.80 bitrate=   2.8kbits/s speed=0.28x elapsed=0:00:06.43    \nframe=   58 fps=8.3 q=53.0 size=       1KiB time=00:00:01.93 bitrate=   2.6kbits/s speed=0.278x elapsed=0:00:06.96    \nframe=   63 fps=8.4 q=37.0 size=       1KiB time=00:00:02.10 bitrate=   2.4kbits/s speed=0.28x elapsed=0:00:07.48    \nframe=   68 fps=8.5 q=51.0 size=       1KiB time=00:00:02.26 bitrate=   2.2kbits/s speed=0.283x elapsed=0:00:08.02    \nframe=   73 fps=8.5 q=51.0 size=       1KiB time=00:00:02.43 bitrate=   2.1kbits/s speed=0.285x elapsed=0:00:08.55    \nframe=   77 fps=8.5 q=50.0 size=       1KiB time=00:00:02.56 bitrate=   2.0kbits/s speed=0.283x elapsed=0:00:09.06    \nframe=   82 fps=8.6 q=49.0 size=       1KiB time=00:00:02.73 bitrate=   1.9kbits/s speed=0.285x elapsed=0:00:09.59    \nframe=   86 fps=8.5 q=52.0 size=       1KiB time=00:00:02.86 bitrate=   1.8kbits/s speed=0.283x elapsed=0:00:10.13    \nframe=   90 fps=8.4 q=54.0 size=       1KiB time=00:00:03.00 bitrate=   1.7kbits/s speed=0.281x elapsed=0:00:10.66    \nframe=   94 fps=8.4 q=53.0 size=       1KiB time=00:00:03.13 bitrate=   1.6kbits/s speed=0.28x elapsed=0:00:11.17    \nframe=   98 fps=8.4 q=53.0 size=       1KiB time=00:00:03.26 bitrate=   1.6kbits/s speed=0.279x elapsed=0:00:11.70    \nframe=  103 fps=8.4 q=51.0 size=       1KiB time=00:00:03.43 bitrate=   1.5kbits/s speed=0.281x elapsed=0:00:12.22    \nframe=  107 fps=8.4 q=52.0 size=       1KiB time=00:00:03.56 bitrate=   1.4kbits/s speed=0.28x elapsed=0:00:12.74    \nframe=  111 fps=8.4 q=53.0 size=       1KiB time=00:00:03.70 bitrate=   1.4kbits/s speed=0.279x elapsed=0:00:13.26    \nframe=  116 fps=8.4 q=55.0 size=       1KiB time=00:00:03.86 bitrate=   1.3kbits/s speed=0.281x elapsed=0:00:13.78    \nframe=  120 fps=8.4 q=54.0 size=       1KiB time=00:00:04.00 bitrate=   1.3kbits/s speed=0.28x elapsed=0:00:14.29    \nframe=  125 fps=8.4 q=52.0 size=       1KiB time=00:00:04.16 bitrate=   1.2kbits/s speed=0.281x elapsed=0:00:14.82    \nframe=  126 fps=8.2 q=51.0 size=       1KiB time=00:00:04.20 bitrate=   1.2kbits/s speed=0.273x elapsed=0:00:15.36    \nframe=  126 fps=7.9 q=51.0 size=       1KiB time=00:00:04.20 bitrate=   1.2kbits/s speed=0.265x elapsed=0:00:15.87    \nframe=  126 fps=7.7 q=51.0 size=       1KiB time=00:00:04.20 bitrate=   1.2kbits/s speed=0.256x elapsed=0:00:16.41    \nframe=  126 fps=7.4 q=51.0 size=       1KiB time=00:00:04.20 bitrate=   1.2kbits/s speed=0.248x elapsed=0:00:16.93    \nframe=  126 fps=7.2 q=51.0 size=       1KiB time=00:00:04.20 bitrate=   1.2kbits/s speed=0.241x elapsed=0:00:17.45    \n[out#0/webm @ 000001c4f0020c40] video:1474KiB audio:0KiB subtitle:0KiB other streams:0KiB global headers:0KiB muxing overhead: 0.117012%\nframe=  150 fps=8.4 q=52.0 Lsize=    1476KiB time=00:00:05.00 bitrate=2417.6kbits/s speed=0.28x elapsed=0:00:17.84    \n",
  "seconds": 18.11762046813965,
  "probe_out": {}
}